#N canvas 838 564 799 439 10;
#X obj 431 381 gemwin;
#X msg 446 351 destroy;
#N canvas 257 201 474 497 audiorecord 1;
#X obj 93 362 writesf~;
#X obj 92 260 adc~ 1;
#X obj 241 247 symbol;
#X floatatom 241 205 5 0 0 0 - - -, f 5;
#X obj 294 273 ggee/getdir;
#X obj 241 297 pack s s;
#X obj 294 251 loadbang;
#X obj 209 122 sel 0;
#X obj 209 67 moses 0;
#X msg 209 89 0;
#X obj 209 45 - 1;
#X msg 241 330 open \$2/record/\$1 \, start;
#X msg 209 155 stop;
#X obj 209 15 r id;
#X obj 246 390 loadbang;
#X msg 246 412 \; pd dsp 1;
#X obj 241 225 makefilename audio%04d.wav;
#X connect 1 0 0 0;
#X connect 2 0 5 0;
#X connect 3 0 16 0;
#X connect 4 0 5 1;
#X connect 5 0 11 0;
#X connect 6 0 4 0;
#X connect 7 0 12 0;
#X connect 7 1 3 0;
#X connect 8 0 9 0;
#X connect 8 1 7 0;
#X connect 9 0 7 0;
#X connect 10 0 8 0;
#X connect 11 0 0 0;
#X connect 12 0 0 0;
#X connect 13 0 10 0;
#X connect 14 0 15 0;
#X connect 16 0 2 0;
#X restore 50 106 pd audiorecord;
#N canvas 180 233 562 847 videorecorddanse 0;
#X obj 44 346 pix_record;
#X obj 44 51 gemhead;
#X obj 44 113 pix_video;
#X obj 44 368 pix_texture;
#X obj 44 132 pix_info, f 34;
#X floatatom 68 155 5 0 0 0 - - -, f 5;
#X floatatom 109 155 5 0 0 0 - - -, f 5;
#X obj 103 22 loadbang;
#X obj 80 201 makefilename danse%04d.mp4;
#X obj 80 223 symbol;
#X floatatom 80 181 5 0 0 0 - - -, f 5;
#X obj 133 249 ggee/getdir;
#X obj 80 273 pack s s;
#X obj 133 227 loadbang;
#X obj 208 226 bng 15 250 50 0 empty empty empty 17 7 0 10 -262144
-1 -1;
#X obj 297 213 sel 0;
#X msg 297 256 record 0;
#X obj 118 397 s tex0;
#X obj 297 143 moses 0;
#X msg 297 165 0;
#X obj 297 121 r id;
#X msg 79 306 file \$2/record/\$1 \, auto 1 \, codec jpeg \, record
1;
#X obj 44 513 pix_texture;
#X obj 44 565 rectangle 3.55 4;
#X obj 44 469 spigot;
#X obj 83 439 r preview;
#X obj 44 535 translateXYZ 3.55 0 0;
#X obj 103 54 nbx 5 14 -1e+37 1e+37 0 1 empty empty empty 0 -8 0 10
-262144 -1 -1 2 256;
#X msg 103 73 dimen 640 480 \, device \$1 \, clearProps \, setProps
width 640 \, setProps height 480 \, applyProps;
#X obj 44 701 text2d danse;
#X obj 125 624 loadbang;
#X msg 125 651 100;
#X connect 0 0 3 0;
#X connect 1 0 2 0;
#X connect 2 0 4 0;
#X connect 3 0 24 0;
#X connect 3 1 17 0;
#X connect 4 0 0 0;
#X connect 4 1 5 0;
#X connect 4 2 6 0;
#X connect 7 0 27 0;
#X connect 8 0 9 0;
#X connect 9 0 12 0;
#X connect 10 0 8 0;
#X connect 11 0 12 1;
#X connect 12 0 21 0;
#X connect 13 0 11 0;
#X connect 14 0 11 0;
#X connect 15 0 16 0;
#X connect 15 1 10 0;
#X connect 16 0 0 0;
#X connect 18 0 19 0;
#X connect 18 1 15 0;
#X connect 19 0 15 0;
#X connect 20 0 18 0;
#X connect 21 0 0 0;
#X connect 22 0 26 0;
#X connect 23 0 29 0;
#X connect 24 0 22 0;
#X connect 25 0 24 1;
#X connect 26 0 23 0;
#X connect 27 0 28 0;
#X connect 28 0 2 0;
#X connect 30 0 31 0;
#X connect 31 0 29 1;
#X restore 50 85 pd videorecorddanse;
#N canvas 0 301 562 737 videorecordobject 1;
#X obj 44 346 pix_record;
#X obj 44 51 gemhead;
#X obj 44 113 pix_video;
#X obj 44 368 pix_texture;
#X obj 44 132 pix_info, f 34;
#X floatatom 68 155 5 0 0 0 - - -, f 5;
#X floatatom 109 155 5 0 0 0 - - -, f 5;
#X obj 103 22 loadbang;
#X obj 80 223 symbol;
#X floatatom 80 181 5 0 0 0 - - -, f 5;
#X obj 133 249 ggee/getdir;
#X obj 80 273 pack s s;
#X obj 133 227 loadbang;
#X obj 208 226 bng 15 250 50 0 empty empty empty 17 7 0 10 -262144
-1 -1;
#X obj 297 233 sel 0;
#X msg 297 256 record 0;
#X obj 118 397 s tex0;
#X obj 80 201 makefilename object%04d.mp4;
#X obj 297 169 moses 0;
#X msg 297 191 0;
#X obj 297 149 - 2;
#X obj 297 127 r id;
#X msg 79 306 file \$2/record/\$1 \, auto 1 \, codec jpeg \, record
1;
#X obj 44 513 pix_texture;
#X obj 44 565 rectangle 3.55 4;
#X obj 44 535 translateXYZ -3.55 0 0;
#X obj 44 469 spigot;
#X obj 83 439 r preview;
#X obj 103 54 nbx 5 14 -1e+37 1e+37 0 1 empty empty empty 0 -8 0 10
-262144 -1 -1 0 256;
#X msg 103 73 dimen 640 480 \, device \$1 \, clearProps \, setProps
width 640 \, setProps height 480 \, applyProps;
#X obj 125 624 loadbang;
#X msg 125 651 100;
#X obj 44 701 text2d object;
#X connect 0 0 3 0;
#X connect 1 0 2 0;
#X connect 2 0 4 0;
#X connect 3 0 26 0;
#X connect 3 1 16 0;
#X connect 4 0 0 0;
#X connect 4 1 5 0;
#X connect 4 2 6 0;
#X connect 7 0 28 0;
#X connect 8 0 11 0;
#X connect 9 0 17 0;
#X connect 10 0 11 1;
#X connect 11 0 22 0;
#X connect 12 0 10 0;
#X connect 13 0 10 0;
#X connect 14 0 15 0;
#X connect 14 1 9 0;
#X connect 15 0 0 0;
#X connect 17 0 8 0;
#X connect 18 0 19 0;
#X connect 18 1 14 0;
#X connect 19 0 14 0;
#X connect 20 0 18 0;
#X connect 21 0 20 0;
#X connect 22 0 0 0;
#X connect 23 0 25 0;
#X connect 24 0 32 0;
#X connect 25 0 24 0;
#X connect 26 0 23 0;
#X connect 27 0 26 1;
#X connect 28 0 29 0;
#X connect 29 0 2 0;
#X connect 30 0 31 0;
#X connect 31 0 32 1;
#X restore 50 127 pd videorecordobject;
#N canvas 524 232 1151 840 playvideodanse 0;
#X obj 154 327 gemhead;
#X obj 154 409 pix_film;
#X obj 154 621 pix_texture;
#X obj 154 673 rectangle 3.55 4;
#X obj 154 643 translateXYZ -3.55 0 0;
#X obj 392 330 gemhead;
#X obj 392 412 pix_film;
#X obj 392 591 pix_texture;
#X obj 392 643 rectangle 3.55 4;
#X obj 392 613 translateXYZ 3.55 0 0;
#X floatatom 258 145 5 0 0 0 - - -, f 5;
#X obj 311 227 ggee/getdir;
#X obj 311 205 loadbang;
#X obj 154 577 spigot;
#X msg 177 517 0;
#X obj 258 193 symbol;
#X floatatom 468 145 5 0 0 0 - - -, f 5;
#X obj 521 227 ggee/getdir;
#X obj 521 205 loadbang;
#X obj 468 193 symbol;
#X obj 468 171 makefilename object%04d.mp4;
#X floatatom 678 145 5 0 0 0 - - -, f 5;
#X obj 731 227 ggee/getdir;
#X obj 731 205 loadbang;
#X obj 678 193 symbol;
#X msg 233 304 open \$2/record/\$1 \, auto 1;
#X msg 468 306 open \$2/record/\$1 \, auto 1;
#X msg 678 306 open \$2/record/\$1 \, 1;
#X obj 678 552 dac~ 1 2;
#X obj 678 449 readsf~ 1;
#X obj 678 380 t a b;
#X obj 679 503 *~;
#X obj 761 449 line~;
#X msg 761 411 0 \, 1 200;
#X obj 233 333 t a b;
#X msg 265 354 1;
#X obj 468 333 t a b;
#X msg 500 354 1;
#X obj 392 554 spigot;
#X msg 445 527 0;
#X obj 442 44 r id;
#X obj 442 88 moses 1;
#X obj 442 66 - 3;
#X obj 678 251 pack s s;
#X obj 468 251 pack s s;
#X obj 258 251 pack s s;
#X floatatom 481 38 5 0 0 0 - - -, f 5;
#X obj 258 171 makefilename danse%04d.mp4;
#X obj 678 171 makefilename audio%04d.wav;
#X obj 154 457 pix_info, f 24;
#X obj 177 478 sel -1;
#X obj 392 457 pix_info, f 24;
#X obj 415 478 sel -1;
#X connect 0 0 1 0;
#X connect 1 0 49 0;
#X connect 1 2 14 0;
#X connect 2 0 4 0;
#X connect 4 0 3 0;
#X connect 5 0 6 0;
#X connect 6 0 51 0;
#X connect 6 2 39 0;
#X connect 7 0 9 0;
#X connect 9 0 8 0;
#X connect 10 0 47 0;
#X connect 11 0 45 1;
#X connect 12 0 11 0;
#X connect 13 0 2 0;
#X connect 14 0 13 1;
#X connect 15 0 45 0;
#X connect 16 0 20 0;
#X connect 17 0 44 1;
#X connect 18 0 17 0;
#X connect 19 0 44 0;
#X connect 20 0 19 0;
#X connect 21 0 48 0;
#X connect 22 0 43 1;
#X connect 23 0 22 0;
#X connect 24 0 43 0;
#X connect 25 0 34 0;
#X connect 26 0 36 0;
#X connect 27 0 30 0;
#X connect 29 0 31 0;
#X connect 30 0 29 0;
#X connect 30 1 33 0;
#X connect 31 0 28 1;
#X connect 31 0 28 0;
#X connect 32 0 31 1;
#X connect 33 0 32 0;
#X connect 34 0 1 0;
#X connect 34 1 35 0;
#X connect 35 0 13 1;
#X connect 36 0 6 0;
#X connect 36 1 37 0;
#X connect 37 0 38 1;
#X connect 38 0 7 0;
#X connect 39 0 38 1;
#X connect 40 0 42 0;
#X connect 41 1 16 0;
#X connect 41 1 10 0;
#X connect 41 1 21 0;
#X connect 42 0 41 0;
#X connect 43 0 27 0;
#X connect 44 0 26 0;
#X connect 45 0 25 0;
#X connect 46 0 41 0;
#X connect 47 0 15 0;
#X connect 48 0 24 0;
#X connect 49 0 13 0;
#X connect 49 1 50 0;
#X connect 50 0 14 0;
#X connect 51 0 38 0;
#X connect 51 1 52 0;
#X connect 52 0 39 0;
#X restore 76 296 pd playvideodanse;
#X obj 297 156 nbx 5 44 -1e+37 1e+37 0 0 empty empty empty 0 -8 0 40
-262144 -1 -1 0 256;
#X obj 297 205 s id;
#X obj 235 15 key;
#X obj 235 37 sel 32;
#X obj 263 179 + 1;
#X obj 431 299 loadbang;
#X obj 235 179 f;
#X obj 235 67 tgl 80 0 empty empty empty 17 7 0 10 -262144 -258113
-258113 0 1;
#X msg 431 322 dimen 1920 1080 \, border 0 \, offset 1920 0 \, create
\, 1;
#X obj 465 91 s preview;
#X obj 465 58 tgl 30 0 empty empty preview 32 7 0 10 -262144 -1 -1
1 1;
#X obj 235 153 sel 1;
#X connect 1 0 0 0;
#X connect 6 0 7 0;
#X connect 8 0 9 0;
#X connect 9 0 13 0;
#X connect 10 0 12 1;
#X connect 10 0 6 0;
#X connect 11 0 14 0;
#X connect 12 0 10 0;
#X connect 13 0 17 0;
#X connect 14 0 0 0;
#X connect 16 0 15 0;
#X connect 17 0 12 0;
#X connect 17 1 7 0;
