#N canvas 1366 188 450 467 10;
#N canvas 863 185 450 399 buzzer 0;
#X msg 117 159 devices;
#X obj 246 243 print comport;
#X obj 88 215 comport/comport 32 9600;
#N canvas 0 106 450 300 parse_output 0;
#X obj 128 50 sel 10;
#X obj 153 234 list;
#X obj 128 255 list;
#X obj 153 212 list prepend;
#X obj 167 133 - 48;
#X obj 128 72 t b b;
#X obj 128 23 inlet;
#X obj 128 277 outlet;
#X obj 153 177 == 0;
#X connect 0 0 5 0;
#X connect 0 1 4 0;
#X connect 1 0 2 1;
#X connect 1 0 3 1;
#X connect 2 0 7 0;
#X connect 3 0 1 0;
#X connect 4 0 8 0;
#X connect 5 0 2 0;
#X connect 5 1 3 1;
#X connect 6 0 0 0;
#X connect 8 0 3 0;
#X restore 88 237 pd parse_output;
#X obj 88 303 unpack 0 0;
#X obj 88 331 tgl 15 0 empty empty empty 17 7 0 10 -262144 -1 -1 0
1;
#X obj 155 331 tgl 15 0 empty empty empty 17 7 0 10 -262144 -1 -1 0
1;
#X obj 197 76 tgl 15 0 empty empty empty 17 7 0 10 -262144 -1 -1 0
1;
#X obj 238 76 tgl 15 0 empty empty empty 17 7 0 10 -262144 -1 -1 0
1;
#X obj 238 96 t b f;
#X obj 197 167 pack 0 0 10;
#X obj 197 96 + 48;
#X obj 270 117 + 48;
#X obj 197 48 inlet;
#X obj 238 48 inlet;
#X obj 88 351 outlet;
#X obj 155 351 outlet;
#X connect 0 0 2 0;
#X connect 2 0 3 0;
#X connect 2 1 1 0;
#X connect 3 0 4 0;
#X connect 4 0 5 0;
#X connect 4 1 6 0;
#X connect 5 0 15 0;
#X connect 6 0 16 0;
#X connect 7 0 11 0;
#X connect 8 0 9 0;
#X connect 9 0 10 0;
#X connect 9 1 12 0;
#X connect 10 0 2 0;
#X connect 11 0 10 0;
#X connect 12 0 10 1;
#X connect 13 0 7 0;
#X connect 14 0 8 0;
#X restore 101 150 pd buzzer;
#X obj 101 124 tgl 15 0 empty empty empty 17 7 0 10 -262144 -1 -1 0
1;
#X obj 161 124 tgl 15 0 empty empty empty 17 7 0 10 -262144 -1 -1 0
1;
#X obj 101 174 tgl 15 0 empty empty empty 17 7 0 10 -262144 -1 -1 0
1;
#X obj 161 174 tgl 15 0 empty empty empty 17 7 0 10 -262144 -1 -1 0
1;
#N canvas 1366 477 450 566 video 1;
#X obj 60 560 gemwin;
#X msg 69 527 destroy;
#X obj 58 175 gemhead;
#X obj 58 429 pix_texture;
#X msg 60 504 dimen 1280 720 \, create \, 1;
#X msg 69 217 open VIDEO.mp4;
#X floatatom 111 286 5 0 0 0 - - -, f 5;
#X obj 58 317 pix_film;
#X obj 58 341 pix_info, f 17;
#X obj 82 375 /;
#X obj 82 397 * 4;
#X obj 58 451 rectangle 5 4;
#X obj 248 189 metro 40;
#X obj 248 167 tgl 15 0 empty empty empty 17 7 0 10 -262144 -1 -1 1
1;
#X obj 248 211 f;
#X obj 278 211 + 1;
#X msg 365 211 0, f 1;
#X obj 69 196 loadbang;
#X floatatom 248 98 5 0 0 0 - - -, f 5;
#X obj 248 117 t b f;
#X msg 248 139 1;
#X obj 291 342 outlet;
#X obj 291 272 t b b;
#X obj 248 77 inlet;
#X msg 338 107 set \$1;
#X obj 60 479 loadbang;
#X obj 248 235 sel 1088 2130 3030;
#X connect 1 0 0 0;
#X connect 2 0 7 0;
#X connect 3 0 11 0;
#X connect 4 0 0 0;
#X connect 5 0 7 0;
#X connect 6 0 7 1;
#X connect 7 0 8 0;
#X connect 8 0 3 0;
#X connect 8 1 9 0;
#X connect 8 2 9 1;
#X connect 9 0 10 0;
#X connect 10 0 11 1;
#X connect 12 0 14 0;
#X connect 13 0 12 0;
#X connect 14 0 15 0;
#X connect 14 0 6 0;
#X connect 14 0 26 0;
#X connect 15 0 14 1;
#X connect 15 0 24 0;
#X connect 16 0 13 0;
#X connect 17 0 5 0;
#X connect 18 0 19 0;
#X connect 19 0 20 0;
#X connect 19 1 14 1;
#X connect 20 0 13 0;
#X connect 22 0 21 0;
#X connect 22 1 16 0;
#X connect 23 0 18 0;
#X connect 24 0 18 0;
#X connect 25 0 4 0;
#X connect 26 0 22 0;
#X connect 26 1 22 0;
#X connect 26 2 22 0;
#X restore 101 6 pd video;
#N canvas 0 158 450 300 blink 0;
#X obj 94 89 inlet;
#X obj 94 171 metro 500;
#X obj 94 212 tgl 15 0 empty empty empty 17 7 0 10 -262144 -1 -1 0
1;
#X msg 126 140 0;
#X obj 94 254 outlet;
#X obj 153 254 outlet;
#X obj 94 111 t f b;
#X connect 0 0 6 0;
#X connect 1 0 2 0;
#X connect 2 0 5 0;
#X connect 2 0 4 0;
#X connect 3 0 2 0;
#X connect 6 0 1 0;
#X connect 6 1 3 0;
#X restore 101 91 pd blink;
#X msg 282 178 0;
#N canvas 0 184 537 308 quickblink 0;
#X obj 130 5 inlet;
#X obj 130 208 tgl 15 0 empty empty empty 17 7 0 10 -262144 -1 -1 0
1;
#X msg 162 136 0;
#X obj 130 250 outlet;
#X obj 130 167 metro 100;
#X obj 226 139 del 1000;
#X obj 130 107 t f b b;
#X msg 226 161 0;
#X obj 130 84 tgl 15 0 empty empty empty 17 7 0 10 -262144 -1 -1 0
1;
#X msg 130 27 1;
#X obj 310 5 inlet;
#X obj 310 208 tgl 15 0 empty empty empty 17 7 0 10 -262144 -1 -1 0
1;
#X msg 342 136 0;
#X obj 310 250 outlet;
#X obj 310 167 metro 100;
#X obj 406 139 del 1000;
#X msg 406 161 0;
#X obj 310 84 tgl 15 0 empty empty empty 17 7 0 10 -262144 -1 -1 0
1;
#X msg 310 27 1;
#X obj 446 261 outlet;
#X obj 310 107 t f b;
#X obj 130 49 t f b;
#X obj 310 49 t f b;
#X connect 0 0 9 0;
#X connect 1 0 3 0;
#X connect 2 0 1 0;
#X connect 4 0 1 0;
#X connect 5 0 7 0;
#X connect 5 0 19 0;
#X connect 6 0 4 0;
#X connect 6 1 2 0;
#X connect 7 0 8 0;
#X connect 8 0 6 0;
#X connect 9 0 21 0;
#X connect 10 0 18 0;
#X connect 11 0 13 0;
#X connect 12 0 11 0;
#X connect 14 0 11 0;
#X connect 15 0 16 0;
#X connect 15 0 19 0;
#X connect 16 0 17 0;
#X connect 17 0 20 0;
#X connect 18 0 22 0;
#X connect 20 0 14 0;
#X connect 20 1 12 0;
#X connect 21 0 8 0;
#X connect 21 1 5 0;
#X connect 22 0 17 0;
#X connect 22 1 15 0;
#X restore 101 361 pd quickblink;
#X obj 60 200 t a;
#X obj 313 247 t a;
#N canvas 1080 534 712 363 waitforinput 0;
#X obj 146 117 spigot;
#X obj 206 117 spigot;
#X obj 146 139 sel 1;
#X obj 146 161 t b b;
#X msg 192 187 0;
#X obj 206 139 sel 1;
#X obj 206 161 t b b;
#X obj 255 81 1;
#X obj 146 227 t b b;
#X obj 206 227 t b b;
#X obj 146 19 inlet;
#X obj 206 19 inlet;
#X obj 255 19 inlet;
#X obj 271 284 outlet;
#X obj 206 284 outlet;
#X obj 146 284 outlet;
#X obj 287 81 del 10000;
#X obj 255 41 t b b;
#X obj 459 220 gemhead 60;
#X obj 459 242 color 255 0 0;
#X obj 459 292 text2d Timeout;
#X obj 571 228 loadbang;
#X msg 571 250 100;
#X obj 350 111 t b b;
#X obj 511 159 loadbang;
#X msg 511 181 0;
#X obj 317 145 del 2000;
#X obj 317 167 t b b;
#X msg 411 156 1;
#X msg 384 198 0, f 18;
#X msg 249 184 stop;
#X connect 0 0 2 0;
#X connect 1 0 5 0;
#X connect 2 0 3 0;
#X connect 3 0 8 0;
#X connect 3 1 4 0;
#X connect 3 1 30 0;
#X connect 4 0 1 1;
#X connect 4 0 0 1;
#X connect 5 0 6 0;
#X connect 6 0 9 0;
#X connect 6 1 4 0;
#X connect 6 1 30 0;
#X connect 7 0 0 1;
#X connect 7 0 1 1;
#X connect 8 0 15 0;
#X connect 8 1 13 0;
#X connect 9 0 14 0;
#X connect 9 1 13 0;
#X connect 10 0 0 0;
#X connect 11 0 1 0;
#X connect 12 0 17 0;
#X connect 16 0 13 0;
#X connect 16 0 23 0;
#X connect 17 0 7 0;
#X connect 17 1 16 0;
#X connect 18 0 19 0;
#X connect 19 0 20 0;
#X connect 21 0 22 0;
#X connect 22 0 20 1;
#X connect 23 0 26 0;
#X connect 23 1 28 0;
#X connect 24 0 25 0;
#X connect 25 0 18 0;
#X connect 26 0 27 0;
#X connect 27 1 29 0;
#X connect 28 0 18 0;
#X connect 29 0 18 0;
#X connect 30 0 16 0;
#X restore 101 247 pd waitforinput;
#X msg 210 103 1;
#X msg 101 60 1;
#X obj 101 33 t b b, f 16;
#X obj 29 31 loadbang;
#X obj 183 432 print;
#X connect 0 0 3 0;
#X connect 0 1 4 0;
#X connect 1 0 0 0;
#X connect 2 0 0 1;
#X connect 3 0 11 0;
#X connect 4 0 11 1;
#X connect 5 0 14 0;
#X connect 6 0 1 0;
#X connect 6 1 2 0;
#X connect 7 0 6 0;
#X connect 8 0 9 0;
#X connect 8 0 16 0;
#X connect 8 1 10 0;
#X connect 8 2 5 0;
#X connect 9 0 1 0;
#X connect 10 0 2 0;
#X connect 11 0 8 0;
#X connect 11 1 8 1;
#X connect 11 2 7 0;
#X connect 12 0 11 2;
#X connect 13 0 6 0;
#X connect 14 0 13 0;
#X connect 14 1 12 0;
#X connect 15 0 13 0;
#X connect 15 0 12 0;
